<svg width="120" height="120" viewBox="0 0 120 120" fill="none" xmlns="http://www.w3.org/2000/svg">
  <rect width="120" height="120" rx="25" fill="rgba(0, 255, 136, 0.1)" stroke="rgba(0, 255, 136, 0.3)" stroke-width="2"/>
  <!-- Trading chart background -->
  <rect x="15" y="20" width="90" height="70" rx="8" fill="rgba(0, 0, 0, 0.3)" stroke="rgba(0, 255, 136, 0.5)" stroke-width="1"/>
  <!-- Candlestick chart -->
  <rect x="25" y="35" width="4" height="20" fill="#00ff88"/>
  <rect x="33" y="40" width="4" height="15" fill="#ff4444"/>
  <rect x="41" y="30" width="4" height="25" fill="#00ff88"/>
  <rect x="49" y="38" width="4" height="17" fill="#00ff88"/>
  <rect x="57" y="45" width="4" height="10" fill="#ff4444"/>
  <rect x="65" y="28" width="4" height="27" fill="#00ff88"/>
  <rect x="73" y="35" width="4" height="20" fill="#00ff88"/>
  <rect x="81" y="42" width="4" height="13" fill="#ff4444"/>
  <rect x="89" y="25" width="4" height="30" fill="#00ff88"/>
  <!-- Trend line -->
  <path d="M25 50 L35 45 L45 40 L55 35 L65 32 L75 30 L85 28 L95 25" stroke="#ff6b35" stroke-width="2" fill="none"/>
  <!-- Performance indicators -->
  <circle cx="25" cy="100" r="12" fill="rgba(0, 255, 136, 0.2)" stroke="rgba(0, 255, 136, 0.5)" stroke-width="1"/>
  <text x="25" y="98" font-family="monospace" font-size="8" fill="#00ff88" text-anchor="middle">+24%</text>
  <text x="25" y="107" font-family="monospace" font-size="5" fill="#cccccc" text-anchor="middle">ROI</text>
  
  <circle cx="60" cy="100" r="12" fill="rgba(255, 107, 53, 0.2)" stroke="rgba(255, 107, 53, 0.5)" stroke-width="1"/>
  <text x="60" y="98" font-family="monospace" font-size="7" fill="#ff6b35" text-anchor="middle">€125K</text>
  <text x="60" y="107" font-family="monospace" font-size="5" fill="#cccccc" text-anchor="middle">Profit</text>
  
  <circle cx="95" cy="100" r="12" fill="rgba(139, 92, 246, 0.2)" stroke="rgba(139, 92, 246, 0.5)" stroke-width="1"/>
  <text x="95" y="98" font-family="monospace" font-size="8" fill="#8b5cf6" text-anchor="middle">98%</text>
  <text x="95" y="107" font-family="monospace" font-size="5" fill="#cccccc" text-anchor="middle">Win</text>
</svg>